<svg width="126" height="34" viewBox="0 0 126 34" fill="none" xmlns="http://www.w3.org/2000/svg">
<path d="M40.2001 29.33C39.2101 29.33 38.2861 29.154 37.4281 28.802C36.5921 28.45 35.9211 27.9 35.4151 27.152C34.9091 26.404 34.6561 25.458 34.6561 24.314C34.6561 22.664 35.2061 21.388 36.3061 20.486C37.4061 19.562 39.0671 19.1 41.2891 19.1H45.3481V18.803C45.3481 18.187 45.0951 17.736 44.5891 17.45C44.0831 17.164 43.1921 17.021 41.9161 17.021C40.1121 17.021 38.3301 17.296 36.5701 17.846V14.117C37.3621 13.809 38.3521 13.556 39.5401 13.358C40.7281 13.138 41.9381 13.028 43.1701 13.028C45.6561 13.028 47.6251 13.534 49.0771 14.546C50.5291 15.558 51.2551 17.164 51.2551 19.364V29H45.8431L45.5461 27.746C44.9961 28.23 44.2811 28.615 43.4011 28.901C42.5431 29.187 41.4761 29.33 40.2001 29.33ZM42.3121 25.7C43.0161 25.7 43.6101 25.579 44.0941 25.337C44.6001 25.095 45.0181 24.798 45.3481 24.446V22.499H42.3451C40.9811 22.499 40.2991 23.038 40.2991 24.116C40.2991 25.172 40.9701 25.7 42.3121 25.7ZM60.7709 29.33C58.6809 29.33 57.1629 28.802 56.2169 27.746C55.2709 26.69 54.7979 25.26 54.7979 23.456V17.945H52.7519V13.358H54.7979V10.157L61.0019 8.672V13.358H64.5989L64.3679 17.945H61.0019V22.994C61.0019 23.654 61.1669 24.127 61.4969 24.413C61.8269 24.677 62.3329 24.809 63.0149 24.809C63.6529 24.809 64.3019 24.699 64.9619 24.479V28.604C63.7959 29.088 62.3989 29.33 60.7709 29.33ZM75.221 29.33C73.395 29.33 71.778 29.033 70.37 28.439C68.984 27.823 67.895 26.91 67.103 25.7C66.333 24.49 65.948 22.994 65.948 21.212C65.948 18.726 66.652 16.746 68.06 15.272C69.468 13.776 71.569 13.028 74.363 13.028C76.915 13.028 78.906 13.677 80.336 14.975C81.788 16.273 82.514 18.044 82.514 20.288V23.027H71.657C71.943 23.863 72.504 24.457 73.34 24.809C74.176 25.161 75.309 25.337 76.739 25.337C77.641 25.337 78.543 25.26 79.445 25.106C80.369 24.93 81.106 24.732 81.656 24.512V28.241C80.116 28.967 77.971 29.33 75.221 29.33ZM71.657 19.661H77.168V19.1C77.168 18.484 76.97 17.978 76.574 17.582C76.2 17.186 75.529 16.988 74.561 16.988C73.483 16.988 72.724 17.219 72.284 17.681C71.866 18.121 71.657 18.781 71.657 19.661Z" fill="#333333"/>
<path d="M87.3099 29V12.368H81.3369V7.748H99.4869V12.368H93.5139V29H87.3099ZM107.122 29.33C103.998 29.33 101.688 28.637 100.192 27.251C98.7183 25.865 97.9813 23.841 97.9813 21.179C97.9813 18.539 98.7293 16.526 100.225 15.14C101.721 13.732 104.02 13.028 107.122 13.028C110.246 13.028 112.556 13.732 114.052 15.14C115.57 16.526 116.329 18.539 116.329 21.179C116.329 23.841 115.581 25.865 114.085 27.251C112.589 28.637 110.268 29.33 107.122 29.33ZM107.122 24.809C108.134 24.809 108.86 24.523 109.3 23.951C109.762 23.379 109.993 22.455 109.993 21.179C109.993 19.925 109.762 19.012 109.3 18.44C108.86 17.846 108.134 17.549 107.122 17.549C106.132 17.549 105.417 17.846 104.977 18.44C104.537 19.012 104.317 19.925 104.317 21.179C104.317 22.455 104.537 23.379 104.977 23.951C105.417 24.523 106.132 24.809 107.122 24.809Z" fill="#A4AAAD"/>
<path d="M25.2118 3.59424H29.9219V29.3681H25.2118V3.59424Z" fill="#333333"/>
<path d="M4.71185 3.92944H9.42195V29.7033H4.71185V3.92944Z" fill="#333333"/>
<rect width="5.04701" height="24.4305" transform="matrix(0.768188 -0.640225 0.49587 0.868397 5.54102 7.16101)" fill="#333333"/>
<rect width="5.01441" height="24.5678" transform="matrix(0.791326 0.611395 0.467852 -0.883807 13.7148 25.3091)" fill="#333333"/>
<rect width="5.01441" height="29.251" transform="matrix(0.791326 0.611395 -0.467852 0.883807 30.032 3.42664)" fill="white"/>
<rect width="5.01441" height="29.251" transform="matrix(0.791326 -0.611395 -0.467852 -0.883807 13.6851 31.5118)" fill="white"/>
</svg>
